<?xml version="1.0" standalone="no"?>
<!DOCTYPE svg PUBLIC "-//W3C//DTD SVG 20010904//EN"
 "http://www.w3.org/TR/2001/REC-SVG-20010904/DTD/svg10.dtd">
<svg version="1.0" xmlns="http://www.w3.org/2000/svg"
 width="700.000000pt" height="366.000000pt" viewBox="0 0 700.000000 366.000000"
 preserveAspectRatio="xMidYMid meet">

<g transform="translate(0.000000,366.000000) scale(0.100000,-0.100000)"
fill="#000000" stroke="none">
<path d="M3361 2795 c-163 -60 -236 -178 -251 -406 -10 -146 -17 -179 -37
-179 -25 0 -113 -92 -173 -181 -65 -97 -114 -214 -127 -304 -11 -76 -4 -109
25 -113 36 -5 68 22 127 111 l55 82 0 -75 c0 -159 46 -268 154 -376 58 -56 87
-77 148 -102 101 -42 126 -41 52 3 -72 43 -127 102 -164 175 -46 94 -55 143
-54 300 1 169 15 227 85 342 51 83 54 123 21 234 -46 152 -11 275 91 313 62
24 144 5 167 -38 15 -29 12 -106 -5 -148 -8 -19 -15 -39 -15 -43 0 -3 24 -5
54 -2 30 2 69 -1 86 -7 29 -10 31 -9 24 7 -56 129 -56 189 -1 222 54 34 136
23 185 -23 67 -62 81 -157 41 -282 -33 -105 -30 -149 21 -233 62 -105 81 -176
87 -317 10 -247 -64 -415 -224 -504 -53 -30 -55 -32 -23 -26 63 10 154 61 218
120 108 99 151 195 161 354 l6 104 48 -76 c53 -85 88 -117 124 -117 49 0 50
88 4 222 -50 146 -183 331 -276 384 -20 11 -33 80 -34 194 -3 195 -107 343
-277 395 -80 24 -245 19 -323 -10z"/>
<path d="M3290 2465 c-26 -32 13 -81 48 -59 34 22 22 74 -18 74 -10 0 -23 -7
-30 -15z"/>
<path d="M3720 2465 c-26 -32 13 -81 48 -59 34 22 22 74 -18 74 -10 0 -23 -7
-30 -15z"/>
</g>
</svg>
